<mxfile host="app.diagrams.net" modified="2022-06-09T12:15:39.945Z" agent="5.0 (X11; Linux x86_64) AppleWebKit/537.36 (KHTML, like Gecko) Chrome/100.0.4896.127 Safari/537.36" etag="Hs61zCcxwOFbC7L_HN7J" version="18.2.1" type="github">
  <diagram id="HpwX2peaphsE54BqD4FC" name="Page-1">
    <mxGraphModel dx="1038" dy="515" grid="1" gridSize="2" guides="1" tooltips="1" connect="1" arrows="1" fold="1" page="1" pageScale="1" pageWidth="850" pageHeight="1100" math="0" shadow="0">
      <root>
        <mxCell id="0" />
        <mxCell id="1" parent="0" />
        <mxCell id="eXcymQM_I02Z2umomMd2-1" value="Mobile Device App" style="rounded=0;whiteSpace=wrap;html=1;" vertex="1" parent="1">
          <mxGeometry x="56" y="28" width="694" height="38" as="geometry" />
        </mxCell>
      </root>
    </mxGraphModel>
  </diagram>
</mxfile>
